<svg width="12" height="12" viewBox="0 0 12 12" fill="none" xmlns="http://www.w3.org/2000/svg">
<path d="M1.5 11H10.5C10.6326 11 10.7598 10.9473 10.8536 10.8536C10.9473 10.7598 11 10.6326 11 10.5V3C11 2.86739 10.9473 2.74021 10.8536 2.64645C10.7598 2.55268 10.6326 2.5 10.5 2.5H8.5V1.5C8.5 1.36739 8.44732 1.24021 8.35355 1.14645C8.25978 1.05268 8.13261 1 8 1C7.86739 1 7.74021 1.05268 7.64645 1.14645C7.55268 1.24021 7.5 1.36739 7.5 1.5V2.5H4.5V1.5C4.5 1.36739 4.44732 1.24021 4.35355 1.14645C4.25978 1.05268 4.13261 1 4 1C3.86739 1 3.74021 1.05268 3.64645 1.14645C3.55268 1.24021 3.5 1.36739 3.5 1.5V2.5H1.5C1.36739 2.5 1.24021 2.55268 1.14645 2.64645C1.05268 2.74021 1 2.86739 1 3V10.5C1 10.6326 1.05268 10.7598 1.14645 10.8536C1.24021 10.9473 1.36739 11 1.5 11ZM2 3.5H10V5H2V3.5ZM2 6H10V10H2V6Z" fill="#4BF0FC" fill-opacity="0.75"/>
</svg>
