<svg width="10" height="18" viewBox="0 0 10 18" fill="none" xmlns="http://www.w3.org/2000/svg">
<path d="M1.65923 8.87056e-05C1.87269 -0.000564358 2.0836 0.041826 2.27646 0.124141C2.46932 0.206455 2.63924 0.326605 2.77372 0.47576L9.67496 8.18932C9.88511 8.41935 10 8.70789 10 9.00567C10 9.30344 9.88511 9.59198 9.67496 9.82202L2.53082 17.5356C2.28829 17.7981 1.93978 17.9632 1.56196 17.9946C1.18414 18.0259 0.80796 17.9209 0.51617 17.7027C0.224379 17.4845 0.0408826 17.1709 0.0060481 16.831C-0.0287864 16.491 0.087894 16.1526 0.330421 15.89L6.71728 8.99924L0.544745 2.10846C0.370023 1.91976 0.259037 1.68997 0.224917 1.44629C0.190797 1.2026 0.234971 0.955227 0.352215 0.733426C0.469459 0.511626 0.654863 0.324685 0.886491 0.194724C1.11812 0.0647633 1.38628 -0.00278046 1.65923 8.87056e-05Z" fill="black"/>
</svg>
