<svg width="6" height="8" viewBox="0 0 6 8" fill="none" xmlns="http://www.w3.org/2000/svg">
<path d="M5.59 2.19H2.47V3.57C2.60333 3.42333 2.79 3.30333 3.03 3.21C3.27 3.11667 3.53 3.07 3.81 3.07C4.31 3.07 4.72333 3.18333 5.05 3.41C5.38333 3.63667 5.62667 3.93 5.78 4.29C5.93333 4.65 6.01 5.04 6.01 5.46C6.01 6.24 5.79 6.86 5.35 7.32C4.91 7.77333 4.29 8 3.49 8C2.95667 8 2.49333 7.91 2.1 7.73C1.70667 7.54333 1.40333 7.28667 1.19 6.96C0.976667 6.63333 0.86 6.25667 0.84 5.83H2.51C2.55 6.03667 2.64667 6.21 2.8 6.35C2.95333 6.48333 3.16333 6.55 3.43 6.55C3.74333 6.55 3.97667 6.45 4.13 6.25C4.28333 6.05 4.36 5.78333 4.36 5.45C4.36 5.12333 4.28 4.87333 4.12 4.7C3.96 4.52667 3.72667 4.44 3.42 4.44C3.19333 4.44 3.00667 4.49667 2.86 4.61C2.71333 4.71667 2.61667 4.86 2.57 5.04H0.92V0.69H5.59V2.19Z" fill="white"/>
</svg>
