<svg width="49" height="49" viewBox="0 0 49 49" fill="none" xmlns="http://www.w3.org/2000/svg">
<circle cx="24.5" cy="24.5" r="24.5" fill="#22A364"/>
<path d="M35.633 19.5986C35.9007 19.2827 36.0317 18.8711 35.9935 18.458C35.9539 18.045 35.7503 17.665 35.4287 17.4031L32.6863 15.1839C32.0243 14.6485 31.0529 14.7507 30.5175 15.412L22.1207 25.7891L18.1371 22.4308C17.3787 21.7911 16.259 21.8393 15.5574 22.5395L13.4512 24.645C13.1482 24.9479 12.9856 25.3638 13.0007 25.792C13.0166 26.2209 13.2101 26.621 13.5347 26.9016L21.5278 33.7844C21.8386 34.0528 22.243 34.1859 22.6518 34.1535C23.0605 34.1219 23.4404 33.929 23.7059 33.616L35.633 19.5986Z" fill="white"/>
</svg>
