<svg width="19" height="20" viewBox="0 0 19 20" fill="none" xmlns="http://www.w3.org/2000/svg">
<path d="M17.187 9.43791L10.062 2.31291C9.98843 2.23871 9.90088 2.17981 9.8044 2.13962C9.70793 2.09943 9.60446 2.07874 9.49995 2.07874C9.39544 2.07874 9.29196 2.09943 9.19549 2.13962C9.09902 2.17981 9.01146 2.23871 8.93786 2.31291L1.81286 9.43791C1.70301 9.54924 1.6286 9.69061 1.59901 9.84418C1.56943 9.99776 1.58599 10.1567 1.64661 10.3008C1.70601 10.4454 1.80686 10.5692 1.93647 10.6565C2.06609 10.7439 2.21865 10.7909 2.37495 10.7917H3.16661V16.5708C3.18105 16.9411 3.34159 17.2906 3.6131 17.5429C3.88462 17.7951 4.24499 17.9295 4.61536 17.9167H6.72911C6.93908 17.9167 7.14044 17.8333 7.28891 17.6848C7.43737 17.5363 7.52078 17.335 7.52078 17.125V13.2458C7.52078 13.0359 7.60419 12.8345 7.75265 12.686C7.90112 12.5376 8.10248 12.4542 8.31245 12.4542H10.6874C10.8974 12.4542 11.0988 12.5376 11.2472 12.686C11.3957 12.8345 11.4791 13.0359 11.4791 13.2458V17.125C11.4791 17.335 11.5625 17.5363 11.711 17.6848C11.8595 17.8333 12.0608 17.9167 12.2708 17.9167H14.3845C14.7549 17.9295 15.1153 17.7951 15.3868 17.5429C15.6583 17.2906 15.8188 16.9411 15.8333 16.5708V10.7917H16.6249C16.7812 10.7909 16.9338 10.7439 17.0634 10.6565C17.193 10.5692 17.2939 10.4454 17.3533 10.3008C17.4139 10.1567 17.4305 9.99776 17.4009 9.84418C17.3713 9.69061 17.2969 9.54924 17.187 9.43791Z" fill="#0395CC"/>
</svg>
