<svg width="24" height="24" viewBox="0 0 24 24" fill="none" xmlns="http://www.w3.org/2000/svg">
<path d="M12.9582 2.41669C10.3119 2.41669 8.16658 4.56199 8.16658 7.20835C8.16658 7.73762 8.59564 8.16669 9.12491 8.16669C9.65418 8.16669 10.0832 7.73762 10.0832 7.20835C10.0832 5.62054 11.3705 4.33335 12.9582 4.33335H16.7916C18.3794 4.33335 19.6666 5.62054 19.6666 7.20835V16.7917C19.6666 18.3795 18.3794 19.6667 16.7916 19.6667H12.9582C11.3705 19.6667 10.0832 18.3795 10.0832 16.7917C10.0832 16.2624 9.65418 15.8334 9.12491 15.8334C8.59564 15.8334 8.16658 16.2624 8.16658 16.7917C8.16658 19.438 10.3119 21.5834 12.9582 21.5834H16.7916C19.4379 21.5834 21.5832 19.438 21.5832 16.7917V7.20835C21.5832 4.56199 19.4379 2.41669 16.7916 2.41669H12.9582Z" fill="white"/>
<path d="M13.9166 11.0417C14.4459 11.0417 14.8749 11.4707 14.8749 12C14.8749 12.5293 14.4459 12.9584 13.9166 12.9584V11.0417Z" fill="white"/>
<path d="M5.97958 11.0417C6.06489 10.9365 6.14663 10.8344 6.22395 10.7369C6.45921 10.4401 6.65839 10.1796 6.79903 9.99279C6.86942 9.89931 6.92531 9.82409 6.9639 9.77183L7.00853 9.71116L7.02049 9.6948L7.02473 9.68899C7.02477 9.68893 7.02521 9.68832 6.24991 9.12503L7.02473 9.68899C7.33582 9.2608 7.24139 8.66082 6.8132 8.34972C6.38503 8.03863 5.78576 8.13354 5.47464 8.56167L5.47194 8.56538L5.46213 8.5788L5.42211 8.6332C5.38671 8.68115 5.33436 8.7516 5.26785 8.83992C5.13471 9.01676 4.94545 9.26439 4.72209 9.54609C4.27049 10.1157 3.69852 10.8003 3.17643 11.3224L2.49878 12L3.17643 12.6777C3.69852 13.1998 4.27049 13.8844 4.72209 14.4539C4.94545 14.7357 5.13471 14.9833 5.26785 15.1601C5.33436 15.2485 5.38671 15.3189 5.42211 15.3668L5.46213 15.4213L5.47194 15.4347L5.47417 15.4378C5.78529 15.8658 6.38503 15.9614 6.8132 15.6503C7.24139 15.3392 7.33631 14.7399 7.02521 14.3117L6.24991 14.875C7.02521 14.3117 7.02526 14.3118 7.02521 14.3117L7.02049 14.3053L7.00853 14.2889L6.9639 14.2282C6.92531 14.1759 6.86942 14.1008 6.79903 14.0073C6.65839 13.8205 6.45921 13.5599 6.22395 13.2631C6.14663 13.1656 6.06489 13.0636 5.97958 12.9584H13.9166V11.0417H5.97958Z" fill="white"/>
</svg>
