<svg width="22" height="20" viewBox="0 0 22 20" fill="none" xmlns="http://www.w3.org/2000/svg">
<path d="M16.1393 15.1339C16.1435 14.4671 15.5913 13.9234 14.9061 13.9194C14.2208 13.9153 13.662 14.4526 13.6578 15.1193C13.6537 15.7861 14.2059 16.3298 14.8911 16.3339C15.5764 16.3379 16.1352 15.8006 16.1393 15.1339Z" fill="#23C1FF"/>
<path d="M13.3651 17.8676C13.3692 17.2008 12.82 16.7201 12.131 16.6613C11.4457 16.6572 10.8877 17.1862 10.8836 17.853C10.8794 18.5197 11.4316 19.0635 12.1168 19.0675C12.8021 19.0716 13.3609 18.5343 13.3651 17.8676Z" fill="#23C1FF"/>
<path fill-rule="evenodd" clip-rule="evenodd" d="M12.9625 16.9955C13.397 17.3479 13.3651 17.8676 13.3651 17.8676C13.3631 17.8363 13.3693 17.8998 13.3651 17.8676C13.3012 17.0562 14.0639 16.2862 14.8911 16.3339C14.8911 16.3339 14.3758 16.3517 14.0086 15.9679C13.614 15.5553 13.6578 15.1193 13.6578 15.1193C13.7124 15.9383 12.9741 16.7333 12.131 16.6613C12.0409 16.6607 12.2127 16.6548 12.131 16.6613C12.131 16.6613 12.6145 16.6822 12.9625 16.9955Z" fill="#23C1FF"/>
<path d="M12.1787 0.795254C11.4946 0.76751 10.9169 1.28555 10.8884 1.95233C10.8599 2.61911 11.3913 3.18213 12.0754 3.20987C12.7595 3.23761 13.3371 2.71957 13.3656 2.0528C13.3941 1.38602 12.8627 0.822997 12.1787 0.795254Z" fill="#23C1FF"/>
<path d="M14.8852 3.59258C14.2011 3.56484 13.6883 4.08228 13.6034 4.75073C13.5749 5.4175 14.0979 5.97946 14.7819 6.0072C15.466 6.03494 16.0437 5.5169 16.0722 4.85013C16.1007 4.18335 15.5693 3.62033 14.8852 3.59258Z" fill="#23C1FF"/>
<path fill-rule="evenodd" clip-rule="evenodd" d="M13.976 3.95338C14.353 3.543 14.8852 3.59258 14.8852 3.59258C14.853 3.59341 14.9184 3.58961 14.8852 3.59258C14.0503 3.62591 13.2873 2.85614 13.3656 2.0528C13.3656 2.0528 13.3656 2.55494 12.9586 2.89863C12.5212 3.26804 12.0754 3.20987 12.0754 3.20987C12.9178 3.1859 13.7073 3.93269 13.6034 4.75073C13.5996 4.83834 13.5997 4.67097 13.6034 4.75073C13.6034 4.75073 13.6421 4.28091 13.976 3.95338Z" fill="#23C1FF"/>
<path d="M21.1618 9.93236C21.1659 9.26561 20.6138 8.72184 19.9285 8.71781C19.2433 8.71379 18.6844 9.25103 18.6803 9.91778C18.6762 10.5845 19.2283 11.1283 19.9136 11.1323C20.5988 11.1364 21.1577 10.5991 21.1618 9.93236Z" fill="#23C1FF"/>
<path d="M18.3875 12.666C18.3917 11.9993 17.8424 11.5186 17.1535 11.4597C16.4682 11.4557 15.9101 11.9847 15.906 12.6515C15.9019 13.3182 16.454 13.862 17.1393 13.866C17.8245 13.87 18.3834 13.3328 18.3875 12.666Z" fill="#23C1FF"/>
<path fill-rule="evenodd" clip-rule="evenodd" d="M17.9849 11.794C18.4195 12.1463 18.3875 12.666 18.3875 12.666C18.3855 12.6348 18.3918 12.6983 18.3875 12.666C18.3236 11.8546 19.0864 11.0847 19.9136 11.1323C19.9136 11.1323 19.3983 11.1502 19.0311 10.7663C18.6365 10.3537 18.6803 9.91778 18.6803 9.91778C18.7349 10.7368 17.9966 11.5317 17.1535 11.4597C17.0634 11.4592 17.2352 11.4533 17.1535 11.4597C17.1535 11.4597 17.637 11.4807 17.9849 11.794Z" fill="#23C1FF"/>
<path d="M19.8549 11.0876C20.539 11.1153 21.1166 10.5973 21.1451 9.93048C21.1737 9.26371 20.6422 8.70069 19.9582 8.67294C19.2741 8.6452 18.6965 9.16324 18.6679 9.83002C18.6394 10.4968 19.1709 11.0598 19.8549 11.0876Z" fill="#23C1FF"/>
<path d="M17.1484 8.29023C17.8324 8.31797 18.3453 7.80053 18.4302 7.13209C18.4587 6.46531 17.9357 5.90336 17.2516 5.87561C16.5676 5.84787 15.9899 6.36591 15.9614 7.03269C15.9329 7.69947 16.4643 8.26249 17.1484 8.29023Z" fill="#23C1FF"/>
<path fill-rule="evenodd" clip-rule="evenodd" d="M18.0576 7.92944C17.6806 8.33981 17.1484 8.29023 17.1484 8.29023C17.1805 8.28941 17.1152 8.2932 17.1484 8.29023C17.9833 8.2569 18.7462 9.02667 18.6679 9.83002C18.6679 9.83002 18.6679 9.32787 19.0749 8.98418C19.5124 8.61477 19.9582 8.67294 19.9582 8.67294C19.1158 8.69691 18.3263 7.95012 18.4302 7.13209C18.4339 7.04447 18.4339 7.21184 18.4302 7.13209C18.4302 7.13209 18.3915 7.60191 18.0576 7.92944Z" fill="#23C1FF"/>
<ellipse cx="0.706003" cy="0.704596" rx="0.706003" ry="0.704596" transform="matrix(0.74217 -0.670212 0.689571 0.724218 0 2.08862)" fill="#23C1FF"/>
<ellipse cx="0.988404" cy="0.986435" rx="0.988404" ry="0.986435" transform="matrix(0.74217 -0.670212 0.689571 0.724218 4.81287 2.11902)" fill="#23C1FF"/>
<ellipse cx="0.706003" cy="0.704596" rx="0.706003" ry="0.704596" transform="matrix(0.74217 -0.670212 0.689571 0.724218 2.42871 4.59399)" fill="#23C1FF"/>
<ellipse cx="0.988404" cy="0.986435" rx="0.988404" ry="0.986435" transform="matrix(0.74217 -0.670212 0.689571 0.724218 7.24158 4.62439)" fill="#23C1FF"/>
<ellipse cx="0.706003" cy="0.704596" rx="0.706003" ry="0.704596" transform="matrix(0.74217 -0.670212 0.689571 0.724218 5.07312 7.23804)" fill="#23C1FF"/>
<ellipse cx="0.988404" cy="0.986435" rx="0.988404" ry="0.986435" transform="matrix(0.74217 -0.670212 0.689571 0.724218 9.88501 7.26843)" fill="#23C1FF"/>
<ellipse cx="0.706003" cy="0.704596" rx="0.706003" ry="0.704596" transform="matrix(0.74217 -0.670212 0.689571 0.724218 7.64429 9.81311)" fill="#23C1FF"/>
<ellipse cx="0.988404" cy="0.986435" rx="0.988404" ry="0.986435" transform="matrix(0.74217 -0.670212 0.689571 0.724218 12.4572 9.84351)" fill="#23C1FF"/>
<ellipse cx="0.706003" cy="0.704596" rx="0.706003" ry="0.704596" transform="matrix(0.74217 -0.670212 0.689571 0.724218 5.07312 12.3881)" fill="#23C1FF"/>
<ellipse cx="0.988404" cy="0.986435" rx="0.988404" ry="0.986435" transform="matrix(0.74217 -0.670212 0.689571 0.724218 9.88501 12.4182)" fill="#23C1FF"/>
<ellipse cx="0.706003" cy="0.704596" rx="0.706003" ry="0.704596" transform="matrix(0.74217 -0.670212 0.689571 0.724218 2.573 15.0325)" fill="#23C1FF"/>
<ellipse cx="0.988404" cy="0.986435" rx="0.988404" ry="0.986435" transform="matrix(0.74217 -0.670212 0.689571 0.724218 7.38403 15.0629)" fill="#23C1FF"/>
<ellipse cx="0.706003" cy="0.704596" rx="0.706003" ry="0.704596" transform="matrix(0.74217 -0.670212 0.689571 0.724218 0 17.7465)" fill="#23C1FF"/>
<ellipse cx="0.988404" cy="0.986435" rx="0.988404" ry="0.986435" transform="matrix(0.74217 -0.670212 0.689571 0.724218 4.81287 17.7769)" fill="#23C1FF"/>
</svg>
