<svg width="22" height="22" viewBox="0 0 22 22" fill="none" xmlns="http://www.w3.org/2000/svg">
<path fill-rule="evenodd" clip-rule="evenodd" d="M15.125 6.47446C15.125 9.40321 13.3558 11.9167 11 11.9167C8.64229 11.9167 6.87496 9.40321 6.87496 6.47354C6.87496 3.54571 8.39662 1.83337 11 1.83337C13.6033 1.83337 15.125 3.54479 15.125 6.47446ZM3.76012 18.4635C4.11304 18.8834 5.63287 20.1667 11 20.1667C16.367 20.1667 17.886 18.8834 18.2398 18.4645C18.2726 18.4242 18.2969 18.3777 18.311 18.3277C18.3252 18.2777 18.3291 18.2254 18.3223 18.1739C18.2416 17.3654 17.5138 13.75 11 13.75C4.48612 13.75 3.75829 17.3654 3.67671 18.1739C3.67007 18.2254 3.67404 18.2778 3.68839 18.3278C3.70273 18.3778 3.72714 18.4233 3.76012 18.4635Z" fill="#0395CC"/>
</svg>
