<svg width="101" height="173" viewBox="0 0 101 173" fill="none" xmlns="http://www.w3.org/2000/svg">
<path d="M25.5731 159.925C27.0913 168.536 35.3831 174.418 43.5826 171.382C60.2391 165.216 74.7654 154.098 85.0944 139.347C98.4735 120.239 103.714 96.5996 99.6638 73.6281C95.6134 50.6567 82.6034 30.2353 63.4959 16.8565C48.7447 6.52779 31.2921 1.0497 13.5312 0.952656C4.78808 0.904885 -0.991905 9.26824 0.526337 17.8786C2.04459 26.489 10.3522 32.0024 19.0457 32.9339C28.418 33.9381 37.4757 37.2897 45.3353 42.7929C57.564 51.3553 65.8904 64.425 68.4827 79.1267C71.0751 93.8284 67.7209 108.958 59.1583 121.187C53.655 129.046 46.2898 135.294 37.8263 139.444C29.9757 143.293 24.0548 151.315 25.5731 159.925Z" fill="url(#paint0_angular_124_1092)"/>
<defs>
<radialGradient id="paint0_angular_124_1092" cx="0" cy="0" r="1" gradientUnits="userSpaceOnUse" gradientTransform="translate(13.0497 88.902) rotate(90) scale(87.9503 87.9503)">
<stop offset="0.519418" stop-color="#0F55E8"/>
<stop offset="0.759246" stop-color="#6DCFFA"/>
</radialGradient>
</defs>
</svg>
