<svg width="21" height="20" viewBox="0 0 21 20" fill="none" xmlns="http://www.w3.org/2000/svg">
<path d="M10.5 18.3334C12.2306 18.3334 13.9223 17.8446 15.3612 16.9289C16.8002 16.0133 17.9217 14.7118 18.5839 13.1891C19.2462 11.6663 19.4195 9.99078 19.0819 8.37427C18.7442 6.75776 17.9109 5.2729 16.6872 4.10747C15.4635 2.94203 13.9044 2.14836 12.207 1.82681C10.5097 1.50527 8.75037 1.6703 7.15152 2.30103C5.55267 2.93176 4.1861 3.99986 3.22464 5.37027C2.26318 6.74068 1.75 8.35185 1.75 10C1.75 12.2102 2.67187 14.3298 4.31282 15.8926C5.12533 16.6664 6.08992 17.2802 7.15152 17.699C8.21312 18.1178 9.35093 18.3334 10.5 18.3334ZM10.5 16.6667C10.2404 16.6667 9.98665 16.5934 9.77081 16.456C9.55497 16.3187 9.38675 16.1235 9.28741 15.895C9.18807 15.6666 9.16208 15.4153 9.21272 15.1728C9.26336 14.9304 9.38837 14.7076 9.57192 14.5328C9.75548 14.358 9.98934 14.2389 10.2439 14.1907C10.4985 14.1425 10.7624 14.1672 11.0023 14.2618C11.2421 14.3565 11.4471 14.5167 11.5913 14.7222C11.7355 14.9278 11.8125 15.1695 11.8125 15.4167C11.8125 15.7482 11.6742 16.0662 11.4281 16.3006C11.1819 16.535 10.8481 16.6667 10.5 16.6667ZM7 7.49502C6.9871 6.85479 7.17272 6.22515 7.53364 5.68487C7.89456 5.1446 8.41474 4.71768 9.02912 4.45752C9.57393 4.22579 10.1712 4.12845 10.7659 4.17447C11.3607 4.22049 11.9336 4.4084 12.432 4.72086C12.8916 5.01063 13.2728 5.39967 13.5446 5.85629C13.8164 6.31292 13.9711 6.82423 13.9962 7.34859C14.0213 7.87296 13.916 8.39555 13.6889 8.87381C13.4617 9.35208 13.1192 9.7725 12.6892 10.1009C12.0862 10.5434 11.6525 11.1624 11.4546 11.8625C11.4001 12.0773 11.2582 12.2627 11.0601 12.3779C10.8621 12.4931 10.6241 12.5286 10.3985 12.4767C10.1729 12.4248 9.97827 12.2896 9.85733 12.101C9.73639 11.9123 9.69909 11.6857 9.75362 11.4709C10.0384 10.4124 10.6849 9.47426 11.5911 8.80419C11.8065 8.64011 11.9781 8.42986 12.092 8.19059C12.2058 7.95133 12.2587 7.68982 12.2462 7.42741C12.2338 7.16499 12.1564 6.90909 12.0203 6.68058C11.8843 6.45208 11.6934 6.25743 11.4634 6.11252C11.2056 5.95186 10.909 5.85678 10.6017 5.83636C10.2944 5.81594 9.98678 5.87085 9.70812 5.99586C9.41264 6.13055 9.16448 6.34391 8.99366 6.61013C8.82284 6.87634 8.73669 7.18399 8.74562 7.49586C8.73054 7.70619 8.63232 7.90327 8.47073 8.04737C8.30915 8.19147 8.09622 8.27189 7.87485 8.27242C7.65348 8.27295 7.44013 8.19355 7.27779 8.05022C7.11545 7.90689 7.01619 7.71029 7 7.50002V7.49502Z" fill="url(#paint0_linear_679_2493)"/>
<defs>
<linearGradient id="paint0_linear_679_2493" x1="-2.82661" y1="-16.3158" x2="34.4959" y2="-7.13563" gradientUnits="userSpaceOnUse">
<stop stop-color="#00FEFC"/>
<stop offset="1" stop-color="#0002FE"/>
</linearGradient>
</defs>
</svg>
