<svg width="20" height="20" viewBox="0 0 20 20" fill="none" xmlns="http://www.w3.org/2000/svg">
<path opacity="0.8" fill-rule="evenodd" clip-rule="evenodd" d="M2.929 2.93L2.93 2.928L2.932 2.929L3.459 2.401C3.56234 2.29779 3.70108 2.23777 3.84706 2.23313C3.99304 2.22848 4.13531 2.27956 4.245 2.376L5.455 3.437C5.787 3.742 6.229 3.929 6.715 3.929C7.229 3.929 7.695 3.719 8.031 3.381C8.349 3.061 8.551 2.627 8.57 2.146H8.574L8.679 0.539C8.68865 0.393353 8.75332 0.256826 8.85991 0.157106C8.96651 0.0573849 9.10703 0.00193485 9.253 0.00200009H9.999H10.746C11.049 0.00200009 11.3 0.237 11.32 0.539L11.425 2.146H11.43C11.449 2.63 11.653 3.066 11.974 3.386C12.31 3.721 12.774 3.929 13.286 3.929C13.778 3.929 14.226 3.737 14.558 3.425L15.754 2.375C15.8638 2.27869 16.0062 2.22779 16.1521 2.23262C16.2981 2.23745 16.4368 2.29765 16.54 2.401L17.068 2.929L17.07 2.927V2.929L17.069 2.931L17.597 3.458C17.7004 3.56121 17.7606 3.69988 17.7654 3.84586C17.7702 3.99184 17.7193 4.13419 17.623 4.244L16.563 5.456C16.2463 5.79833 16.0706 6.24764 16.071 6.714C16.071 7.229 16.281 7.694 16.619 8.031C16.939 8.349 17.372 8.551 17.854 8.57V8.574L19.46 8.679C19.763 8.699 19.998 8.95 19.998 9.253V10H20V10.002H19.998V10.748C19.9981 10.894 19.9426 11.0345 19.8429 11.1411C19.7432 11.2477 19.6066 11.3124 19.461 11.322L17.854 11.429V11.43C17.37 11.45 16.934 11.653 16.614 11.974C16.279 12.31 16.071 12.774 16.071 13.286C16.071 13.772 16.258 14.214 16.564 14.546H16.562L17.624 15.757C17.824 15.985 17.812 16.329 17.598 16.543L17.07 17.071V17.073L16.541 17.6C16.4378 17.7031 16.2994 17.7631 16.1536 17.7679C16.0079 17.7727 15.8658 17.722 15.756 17.626L14.588 16.605C14.2412 16.2625 13.7734 16.0706 13.286 16.071C12.771 16.071 12.306 16.281 11.969 16.619C11.651 16.939 11.449 17.374 11.429 17.857H11.425L11.32 19.464C11.3107 19.6038 11.2508 19.7354 11.1513 19.8341C11.0519 19.9328 10.9199 19.9918 10.78 20H9.22C9.08014 19.9918 8.9481 19.9328 8.84867 19.8341C8.74924 19.7354 8.68926 19.6038 8.68 19.464L8.575 17.857H8.571C8.55352 17.3883 8.35873 16.9436 8.026 16.613C7.85397 16.441 7.64973 16.3046 7.42495 16.2116C7.20017 16.1186 6.95926 16.0708 6.716 16.071C6.212 16.071 5.756 16.271 5.421 16.597L4.244 17.627C4.13412 17.7229 3.99192 17.7734 3.84617 17.7684C3.70043 17.7634 3.56203 17.7032 3.459 17.6L2.931 17.072L2.93 17.071L2.402 16.543C2.29865 16.4398 2.23845 16.3011 2.23362 16.1551C2.22879 16.0092 2.27969 15.8668 2.376 15.757L3.438 14.547L3.437 14.546C3.75453 14.2033 3.93066 13.7532 3.93 13.286C3.93 12.771 3.72 12.306 3.382 11.969C3.05248 11.6402 2.61114 11.4478 2.146 11.43V11.429L0.539 11.322C0.393353 11.3124 0.256826 11.2477 0.157106 11.1411C0.0573849 11.0345 0.00193485 10.894 0.00200009 10.748V10.002H0V10L0.000999928 9.253C0.000999928 8.95 0.236 8.699 0.539 8.679L2.145 8.574V8.57C2.61304 8.55202 3.05687 8.35726 3.387 8.025C3.722 7.689 3.929 7.225 3.929 6.715C3.929 6.225 3.739 5.78 3.43 5.448L2.376 4.244C2.27969 4.13419 2.22879 3.99184 2.23362 3.84586C2.23845 3.69988 2.29865 3.56121 2.402 3.458L2.93 2.931L2.929 2.93ZM14.286 10C14.286 11.1367 13.8344 12.2269 13.0307 13.0307C12.2269 13.8344 11.1367 14.286 10 14.286C8.86328 14.286 7.77312 13.8344 6.96934 13.0307C6.16556 12.2269 5.714 11.1367 5.714 10C5.714 8.86328 6.16556 7.77312 6.96934 6.96934C7.77312 6.16556 8.86328 5.714 10 5.714C11.1367 5.714 12.2269 6.16556 13.0307 6.96934C13.8344 7.77312 14.286 8.86328 14.286 10Z" fill="#01B9FD"/>
</svg>
