<svg width="19" height="20" viewBox="0 0 19 20" fill="none" xmlns="http://www.w3.org/2000/svg">
<path d="M17.4167 11.5833V10C17.4167 9.33579 17.4167 8.74545 17.4065 8.21875H1.59359C1.58337 8.74545 1.58337 9.33579 1.58337 10V11.5833C1.58337 14.5689 1.58337 16.0617 2.51087 16.9891C3.43837 17.9167 4.93114 17.9167 7.91671 17.9167H11.0834C14.0689 17.9167 15.5618 17.9167 16.4892 16.9891C17.4167 16.0617 17.4167 14.5689 17.4167 11.5833Z" fill="#0395CC"/>
<path d="M6.13545 2.47913C6.13545 2.15121 5.86962 1.88538 5.5417 1.88538C5.21379 1.88538 4.94795 2.15121 4.94795 2.47913V3.72937C3.80848 3.82061 3.06044 4.04454 2.51086 4.59412C1.96129 5.14369 1.73736 5.89174 1.64612 7.03121H17.3539C17.2627 5.89174 17.0388 5.14369 16.4892 4.59412C15.9396 4.04454 15.1916 3.82061 14.0521 3.72937V2.47913C14.0521 2.15121 13.7863 1.88538 13.4584 1.88538C13.1305 1.88538 12.8646 2.15121 12.8646 2.47913V3.67684C12.3379 3.66663 11.7476 3.66663 11.0834 3.66663H7.9167C7.25247 3.66663 6.66213 3.66663 6.13545 3.67684V2.47913Z" fill="#0395CC"/>
</svg>
