<svg width="46" height="41" viewBox="0 0 46 41" fill="none" xmlns="http://www.w3.org/2000/svg">
<mask id="mask0_1_2812" style="mask-type:alpha" maskUnits="userSpaceOnUse" x="0" y="0" width="46" height="41">
<path d="M34.8451 31.5348C34.8542 30.0685 33.6399 28.8727 32.1329 28.8639C30.626 28.855 29.397 30.0365 29.3879 31.5027C29.3788 32.969 30.5931 34.1648 32.1 34.1737C33.607 34.1825 34.836 33.0011 34.8451 31.5348Z" fill="#4BF0FC"/>
<path d="M28.7441 37.5465C28.7532 36.0802 27.5453 35.0231 26.0302 34.8937C24.5232 34.8848 23.296 36.0482 23.2869 37.5144C23.2778 38.9807 24.4921 40.1765 25.9991 40.1854C27.506 40.1942 28.735 39.0128 28.7441 37.5465Z" fill="#4BF0FC"/>
<path fill-rule="evenodd" clip-rule="evenodd" d="M27.8587 35.6287C28.8143 36.4036 28.7441 37.5465 28.7441 37.5465C28.7397 37.4777 28.7534 37.6174 28.7441 37.5465C28.6035 35.7621 30.281 34.069 32.1 34.1737C32.1 34.1737 30.9668 34.213 30.1594 33.3688C29.2915 32.4614 29.3879 31.5027 29.3879 31.5027C29.5079 33.3038 27.8844 35.0521 26.0302 34.8937C25.8322 34.8925 26.2099 34.8795 26.0302 34.8937C26.0302 34.8937 27.0935 34.9398 27.8587 35.6287Z" fill="#4BF0FC"/>
<path d="M26.1346 0.00234053C24.6303 -0.0586706 23.3599 1.08057 23.2972 2.5469C23.2345 4.01323 24.4032 5.25138 25.9075 5.31239C27.4119 5.37341 28.6822 4.23417 28.7449 2.76784C28.8076 1.30151 27.6389 0.0633516 26.1346 0.00234053Z" fill="#4BF0FC"/>
<path d="M32.0866 6.15403C30.5823 6.09302 29.4545 7.23093 29.2678 8.70094C29.2051 10.1673 30.3552 11.4031 31.8595 11.4641C33.3639 11.5251 34.6342 10.3859 34.6969 8.91953C34.7596 7.45319 33.591 6.21504 32.0866 6.15403Z" fill="#4BF0FC"/>
<path fill-rule="evenodd" clip-rule="evenodd" d="M30.0872 6.94746C30.9163 6.04499 32.0866 6.15403 32.0866 6.15403C32.0159 6.15584 32.1597 6.1475 32.0866 6.15403C30.2505 6.22732 28.5727 4.5345 28.7449 2.76784C28.7449 2.76784 28.7449 3.87212 27.8499 4.62793C26.8879 5.44032 25.9075 5.31239 25.9075 5.31239C27.76 5.25969 29.4963 6.90198 29.2678 8.70094C29.2595 8.89361 29.2597 8.52554 29.2678 8.70094C29.2678 8.70094 29.3529 7.66774 30.0872 6.94746Z" fill="#4BF0FC"/>
<path d="M39.7884 26.1073C39.7975 24.641 38.5897 23.5839 37.0745 23.4545C35.5676 23.4456 34.3403 24.609 34.3312 26.0752C34.3222 27.5415 35.5364 28.7373 37.0434 28.7462C38.5503 28.755 39.7793 27.5736 39.7884 26.1073Z" fill="#4BF0FC"/>
<path fill-rule="evenodd" clip-rule="evenodd" d="M38.9031 24.1895C39.8587 24.9644 39.7884 26.1073 39.7884 26.1073C39.784 26.0385 39.7977 26.1782 39.7884 26.1073C39.6479 24.3229 41.3253 22.6297 43.1444 22.7345C43.1444 22.7345 42.0112 22.7738 41.2037 21.9296C40.3358 21.0222 40.4322 20.0635 40.4322 20.0635C40.4366 20.1296 40.4387 20.1956 40.4385 20.2615C40.4328 21.9904 38.8607 23.607 37.0745 23.4545C36.8765 23.4533 37.2542 23.4403 37.0745 23.4545C37.0745 23.4545 38.1378 23.5006 38.9031 24.1895Z" fill="#4BF0FC"/>
<path d="M37.0639 16.4843C38.5682 16.5453 39.696 15.4074 39.8827 13.9374C39.9454 12.4711 38.7953 11.2353 37.2909 11.1742C35.7866 11.1132 34.5163 12.2525 34.4536 13.7188C34.3909 15.1851 35.5595 16.4233 37.0639 16.4843Z" fill="#4BF0FC"/>
<path fill-rule="evenodd" clip-rule="evenodd" d="M39.0633 15.6909C38.2342 16.5933 37.0639 16.4843 37.0639 16.4843C36.9908 16.4908 37.1346 16.4825 37.0639 16.4843C38.9 16.411 40.5778 18.1038 40.4056 19.8705C40.4056 19.8705 40.4056 18.7662 41.3006 18.0104C42.2626 17.198 43.243 17.3259 43.243 17.3259C41.3905 17.3786 39.6542 15.7363 39.8827 13.9374C39.8908 14.1128 39.891 13.7447 39.8827 13.9374C39.8827 13.9374 39.7976 14.9706 39.0633 15.6909Z" fill="#4BF0FC"/>
<path d="M2.72374 1.88745C3.31385 2.50721 3.27633 3.47551 2.63994 4.05019C2.00355 4.62488 1.00927 4.58835 0.419163 3.96859C-0.170947 3.34883 -0.133429 2.38053 0.502961 1.80585C1.13935 1.23116 2.13363 1.26769 2.72374 1.88745Z" fill="#21F8F6"/>
<path d="M14.6559 1.57092C15.482 2.43859 15.4295 3.7942 14.5386 4.59876C13.6476 5.40332 12.2556 5.35217 11.4295 4.48451C10.6033 3.61685 10.6558 2.26124 11.5468 1.45667C12.4377 0.652108 13.8297 0.70326 14.6559 1.57092Z" fill="#21F8F6"/>
<path d="M8.067 7.39716C8.65711 8.01692 8.6196 8.98521 7.98321 9.5599C7.34682 10.1346 6.35254 10.0981 5.76243 9.4783C5.17232 8.85854 5.20984 7.89024 5.84623 7.31555C6.48262 6.74087 7.47689 6.7774 8.067 7.39716Z" fill="#21F8F6"/>
<path d="M19.9991 7.08063C20.8253 7.9483 20.7728 9.30391 19.8818 10.1085C18.9909 10.913 17.5989 10.8619 16.7727 9.99422C15.9466 9.12656 15.9991 7.77095 16.8901 6.96638C17.781 6.16182 19.173 6.21297 19.9991 7.08063Z" fill="#21F8F6"/>
<path d="M13.8801 13.2118C14.4702 13.8315 14.4326 14.7998 13.7963 15.3745C13.1599 15.9492 12.1656 15.9127 11.5755 15.2929C10.9854 14.6731 11.0229 13.7048 11.6593 13.1302C12.2957 12.5555 13.2899 12.592 13.8801 13.2118Z" fill="#21F8F6"/>
<path d="M25.8122 12.8952C26.6383 13.7629 26.5858 15.1185 25.6949 15.9231C24.8039 16.7276 23.4119 16.6765 22.5858 15.8088C21.7596 14.9412 21.8122 13.5855 22.7031 12.781C23.5941 11.9764 24.986 12.0276 25.8122 12.8952Z" fill="#21F8F6"/>
<path d="M19.537 18.875C20.1271 19.4948 20.0896 20.4631 19.4532 21.0378C18.8168 21.6124 17.8226 21.5759 17.2325 20.9561C16.6424 20.3364 16.6799 19.3681 17.3163 18.7934C17.9527 18.2187 18.9469 18.2553 19.537 18.875Z" fill="#21F8F6"/>
<path d="M31.4692 18.5585C32.2953 19.4261 32.2428 20.7818 31.3519 21.5863C30.4609 22.3909 29.0689 22.3397 28.2428 21.4721C27.4166 20.6044 27.4691 19.2488 28.3601 18.4442C29.251 17.6397 30.643 17.6908 31.4692 18.5585Z" fill="#21F8F6"/>
<path d="M13.8801 24.5369C14.4702 25.1567 14.4326 26.125 13.7963 26.6997C13.1599 27.2744 12.1656 27.2378 11.5755 26.6181C10.9854 25.9983 11.0229 25.03 11.6593 24.4553C12.2957 23.8806 13.2899 23.9172 13.8801 24.5369Z" fill="#21F8F6"/>
<path d="M25.8122 24.22C26.6383 25.0877 26.5858 26.4433 25.6949 27.2479C24.8039 28.0524 23.4119 28.0013 22.5858 27.1336C21.7596 26.2659 21.8122 24.9103 22.7031 24.1058C23.5941 23.3012 24.986 23.3524 25.8122 24.22Z" fill="#21F8F6"/>
<path d="M8.38162 30.3525C8.97173 30.9723 8.93421 31.9405 8.29782 32.5152C7.66143 33.0899 6.66715 33.0534 6.07704 32.4336C5.48693 31.8139 5.52445 30.8456 6.16084 30.2709C6.79723 29.6962 7.79151 29.7327 8.38162 30.3525Z" fill="#21F8F6"/>
<path d="M20.3118 30.036C21.1379 30.9036 21.0854 32.2592 20.1945 33.0638C19.3035 33.8684 17.9115 33.8172 17.0854 32.9495C16.2592 32.0819 16.3118 30.7263 17.2027 29.9217C18.0936 29.1171 19.4856 29.1683 20.3118 30.036Z" fill="#21F8F6"/>
<path d="M2.72374 36.321C3.31385 36.9408 3.27633 37.9091 2.63994 38.4838C2.00355 39.0584 1.00927 39.0219 0.419163 38.4021C-0.170947 37.7824 -0.133429 36.8141 0.502961 36.2394C1.13935 35.6647 2.13363 35.7013 2.72374 36.321Z" fill="#21F8F6"/>
<path d="M14.6559 36.0045C15.482 36.8722 15.4295 38.2278 14.5386 39.0324C13.6476 39.8369 12.2556 39.7858 11.4295 38.9181C10.6033 38.0505 10.6558 36.6948 11.5468 35.8903C12.4377 35.0857 13.8297 35.1369 14.6559 36.0045Z" fill="#21F8F6"/>
<path fill-rule="evenodd" clip-rule="evenodd" d="M45.7358 19.1989C45.4056 18.1532 44.4285 17.374 43.243 17.3259C41.7386 17.2649 40.4683 18.4042 40.4056 19.8705C40.3922 20.184 40.4351 20.4871 40.5255 20.7705C40.8364 21.8957 41.8888 22.7271 43.1444 22.7345C44.6513 22.7433 45.8803 21.5619 45.8894 20.0956C45.8913 19.7813 45.8371 19.4794 45.7358 19.1989ZM45.7358 19.1989C45.8245 19.4802 45.8666 19.7807 45.8533 20.0914C45.7906 21.5578 44.5202 22.697 43.0159 22.636C41.8332 22.588 40.858 21.8125 40.5255 20.7705C40.4802 20.6065 40.4506 20.4363 40.4385 20.2615C40.4387 20.1956 40.4366 20.1296 40.4322 20.0635C40.4413 18.5973 41.6703 17.4158 43.1772 17.4246C44.3612 17.4316 45.3644 18.1712 45.7358 19.1989Z" fill="#4BF0FC"/>
<path d="M43.1772 17.4246C41.6703 17.4158 40.4413 18.5973 40.4322 20.0635C40.4366 20.1296 40.4387 20.1956 40.4385 20.2615C40.4506 20.4363 40.4802 20.6065 40.5255 20.7705C40.858 21.8125 41.8332 22.588 43.0159 22.636C44.5202 22.697 45.7906 21.5578 45.8533 20.0914C45.8666 19.7807 45.8245 19.4802 45.7358 19.1989C45.3644 18.1712 44.3612 17.4316 43.1772 17.4246Z" fill="#21F8F6"/>
</mask>
<g mask="url(#mask0_1_2812)">
<path d="M34.944 31.5349C34.9531 30.0687 33.7389 28.8728 32.2319 28.864C30.7249 28.8551 29.496 30.0366 29.4869 31.5029C29.4778 32.9692 30.6921 34.165 32.199 34.1738C33.706 34.1827 34.935 33.0012 34.944 31.5349Z" fill="#23C1FF"/>
<path d="M28.8431 37.5466C28.8521 36.0804 27.6443 35.0232 26.1292 34.8938C24.6222 34.885 23.395 36.0483 23.3859 37.5146C23.3768 38.9808 24.5911 40.1767 26.098 40.1855C27.605 40.1944 28.834 39.0129 28.8431 37.5466Z" fill="#23C1FF"/>
<path fill-rule="evenodd" clip-rule="evenodd" d="M27.9577 35.6289C28.9133 36.4037 28.8431 37.5466 28.8431 37.5466C28.8387 37.4779 28.8524 37.6175 28.8431 37.5466C28.7025 35.7622 30.38 34.0691 32.199 34.1738C32.199 34.1738 31.0658 34.2131 30.2584 33.3689C29.3905 32.4616 29.4869 31.5029 29.4869 31.5029C29.6069 33.304 27.9834 35.0522 26.1292 34.8938C25.9312 34.8926 26.3089 34.8797 26.1292 34.8938C26.1292 34.8938 27.1924 34.9399 27.9577 35.6289Z" fill="#23C1FF"/>
<path d="M26.2335 0.00252364C24.7292 -0.0584875 23.4589 1.08075 23.3961 2.54708C23.3334 4.01341 24.5021 5.25157 26.0065 5.31258C27.5108 5.37359 28.7811 4.23435 28.8438 2.76802C28.9065 1.30169 27.7379 0.0635348 26.2335 0.00252364Z" fill="#23C1FF"/>
<path d="M32.1856 6.15421C30.6812 6.0932 29.5534 7.23112 29.3667 8.70112C29.304 10.1674 30.4541 11.4033 31.9585 11.4643C33.4628 11.5253 34.7332 10.386 34.7959 8.91971C34.8586 7.45338 33.6899 6.21522 32.1856 6.15421Z" fill="#23C1FF"/>
<path fill-rule="evenodd" clip-rule="evenodd" d="M30.1861 6.94764C31.0152 6.04517 32.1856 6.15421 32.1856 6.15421C32.1148 6.15602 32.2586 6.14768 32.1856 6.15421C30.3494 6.2275 28.6716 4.53468 28.8438 2.76802C28.8438 2.76802 28.8438 3.87231 27.9488 4.62812C26.9868 5.4405 26.0065 5.31258 26.0065 5.31258C27.859 5.25987 29.5952 6.90216 29.3667 8.70112C29.3585 8.89379 29.3586 8.52572 29.3667 8.70112C29.3667 8.70112 29.4519 7.66792 30.1861 6.94764Z" fill="#23C1FF"/>
<path d="M45.9885 20.0958C45.9976 18.6295 44.7833 17.4337 43.2763 17.4248C41.7694 17.416 40.5404 18.5974 40.5313 20.0637C40.5222 21.53 41.7365 22.7258 43.2434 22.7347C44.7504 22.7435 45.9794 21.562 45.9885 20.0958Z" fill="#23C1FF"/>
<path d="M39.8875 26.1075C39.8966 24.6412 38.6887 23.5841 37.1736 23.4546C35.6666 23.4458 34.4394 24.6091 34.4303 26.0754C34.4212 27.5417 35.6355 28.7375 37.1425 28.7463C38.6494 28.7552 39.8784 27.5737 39.8875 26.1075Z" fill="#23C1FF"/>
<path fill-rule="evenodd" clip-rule="evenodd" d="M39.0021 24.1897C39.9577 24.9646 39.8875 26.1075 39.8875 26.1075C39.8831 26.0387 39.8968 26.1783 39.8875 26.1075C39.747 24.3231 41.4244 22.6299 43.2434 22.7347C43.2434 22.7347 42.1102 22.7739 41.3028 21.9298C40.4349 21.0224 40.5313 20.0637 40.5313 20.0637C40.6513 21.8648 39.0278 23.613 37.1736 23.4546C36.9756 23.4535 37.3533 23.4405 37.1736 23.4546C37.1736 23.4546 38.2369 23.5008 39.0021 24.1897Z" fill="#23C1FF"/>
<path d="M43.1147 22.6361C44.6191 22.6971 45.8894 21.5579 45.9521 20.0915C46.0148 18.6252 44.8461 17.387 43.3418 17.326C41.8375 17.265 40.5671 18.4043 40.5044 19.8706C40.4417 21.3369 41.6104 22.5751 43.1147 22.6361Z" fill="#23C1FF"/>
<path d="M37.1627 16.4844C38.6671 16.5454 39.7948 15.4075 39.9816 13.9375C40.0443 12.4712 38.8941 11.2354 37.3898 11.1743C35.8854 11.1133 34.6151 12.2526 34.5524 13.7189C34.4897 15.1852 35.6584 16.4234 37.1627 16.4844Z" fill="#23C1FF"/>
<path fill-rule="evenodd" clip-rule="evenodd" d="M39.1622 15.691C38.333 16.5934 37.1627 16.4844 37.1627 16.4844C37.2334 16.4826 37.0897 16.4909 37.1627 16.4844C38.9988 16.4111 40.6766 18.1039 40.5044 19.8706C40.5044 19.8706 40.5044 18.7663 41.3994 18.0105C42.3615 17.1981 43.3418 17.326 43.3418 17.326C41.4893 17.3787 39.7531 15.7365 39.9816 13.9375C39.9898 13.7448 39.9897 14.1129 39.9816 13.9375C39.9816 13.9375 39.8964 14.9707 39.1622 15.691Z" fill="#23C1FF"/>
<ellipse cx="1.55259" cy="1.5495" rx="1.55259" ry="1.5495" transform="matrix(0.74217 -0.670212 0.689571 0.724218 -0.549866 2.84653)" fill="#23C1FF"/>
<ellipse cx="2.17363" cy="2.1693" rx="2.17363" ry="2.1693" transform="matrix(0.74217 -0.670212 0.689571 0.724218 10.0332 2.91354)" fill="#23C1FF"/>
<ellipse cx="1.55259" cy="1.5495" rx="1.55259" ry="1.5495" transform="matrix(0.74217 -0.670212 0.689571 0.724218 4.79218 8.35648)" fill="#23C1FF"/>
<ellipse cx="2.17363" cy="2.1693" rx="2.17363" ry="2.1693" transform="matrix(0.74217 -0.670212 0.689571 0.724218 15.3752 8.42343)" fill="#23C1FF"/>
<ellipse cx="1.55259" cy="1.5495" rx="1.55259" ry="1.5495" transform="matrix(0.74217 -0.670212 0.689571 0.724218 10.6066 14.1705)" fill="#23C1FF"/>
<ellipse cx="2.17363" cy="2.1693" rx="2.17363" ry="2.1693" transform="matrix(0.74217 -0.670212 0.689571 0.724218 21.1896 14.2376)" fill="#23C1FF"/>
<ellipse cx="1.55259" cy="1.5495" rx="1.55259" ry="1.5495" transform="matrix(0.74217 -0.670212 0.689571 0.724218 16.2631 19.834)" fill="#23C1FF"/>
<ellipse cx="2.17363" cy="2.1693" rx="2.17363" ry="2.1693" transform="matrix(0.74217 -0.670212 0.689571 0.724218 26.8461 19.901)" fill="#23C1FF"/>
<ellipse cx="1.55259" cy="1.5495" rx="1.55259" ry="1.5495" transform="matrix(0.74217 -0.670212 0.689571 0.724218 10.6066 25.4961)" fill="#23C1FF"/>
<ellipse cx="2.17363" cy="2.1693" rx="2.17363" ry="2.1693" transform="matrix(0.74217 -0.670212 0.689571 0.724218 21.1896 25.5627)" fill="#23C1FF"/>
<ellipse cx="1.55259" cy="1.5495" rx="1.55259" ry="1.5495" transform="matrix(0.74217 -0.670212 0.689571 0.724218 5.10797 31.3118)" fill="#23C1FF"/>
<ellipse cx="2.17363" cy="2.1693" rx="2.17363" ry="2.1693" transform="matrix(0.74217 -0.670212 0.689571 0.724218 15.6889 31.3788)" fill="#23C1FF"/>
<ellipse cx="1.55259" cy="1.5495" rx="1.55259" ry="1.5495" transform="matrix(0.74217 -0.670212 0.689571 0.724218 -0.549866 37.2801)" fill="#23C1FF"/>
<ellipse cx="2.17363" cy="2.1693" rx="2.17363" ry="2.1693" transform="matrix(0.74217 -0.670212 0.689571 0.724218 10.0332 37.3471)" fill="#23C1FF"/>
</g>
</svg>
