<svg width="18" height="17" viewBox="0 0 18 17" fill="none" xmlns="http://www.w3.org/2000/svg">
<g clip-path="url(#clip0_960_8795)">
<path d="M0.97228 10.876H2.86105C3.12184 10.876 3.33333 11.0873 3.33333 11.3481V16.0704C3.33333 16.3311 3.12184 16.5426 2.86105 16.5426H0.97228C0.711497 16.5426 0.5 16.3311 0.5 16.0704V11.3481C0.5 11.0873 0.711497 10.876 0.97228 10.876Z" fill="url(#paint0_linear_960_8795)"/>
<path d="M5.6944 7.09814H7.58334C7.84413 7.09814 8.05562 7.30964 8.05562 7.57042V16.0704C8.05562 16.3312 7.84413 16.5427 7.58334 16.5427H5.6944C5.43361 16.5427 5.22229 16.3312 5.22229 16.0704V7.57042C5.22229 7.30964 5.43361 7.09814 5.6944 7.09814Z" fill="url(#paint1_linear_960_8795)"/>
<path d="M10.4166 8.98682H12.3056C12.5663 8.98682 12.7777 9.19831 12.7777 9.4591V16.0701C12.7777 16.3309 12.5663 16.5424 12.3056 16.5424H10.4166C10.1558 16.5424 9.94434 16.3309 9.94434 16.0701V9.4591C9.94434 9.19831 10.1558 8.98682 10.4166 8.98682Z" fill="url(#paint2_linear_960_8795)"/>
<path d="M15.1389 6.15381H17.0277C17.2885 6.15381 17.5 6.36531 17.5 6.62609V16.0705C17.5 16.3313 17.2885 16.5428 17.0277 16.5428H15.1389C14.8781 16.5428 14.6666 16.3313 14.6666 16.0705V6.62609C14.6666 6.36531 14.8781 6.15381 15.1389 6.15381Z" fill="url(#paint3_linear_960_8795)"/>
<path d="M16.0833 0.486816C15.3013 0.487681 14.6675 1.12148 14.6667 1.90348C14.6686 2.05774 14.6959 2.21061 14.7476 2.35588L12.3836 3.76113C12.0734 3.43204 11.6236 3.27259 11.1753 3.3326C10.7269 3.39261 10.335 3.6648 10.1222 4.06393L8.03711 3.03118C8.04731 2.97048 8.05336 2.90926 8.05561 2.84787C8.05665 2.27442 7.712 1.75701 7.18247 1.53687C6.65295 1.31689 6.04302 1.43777 5.63749 1.84313C5.23179 2.24848 5.11057 2.85825 5.33036 3.38794L2.62569 5.40641C2.41125 5.27861 2.16638 5.21048 1.91667 5.2091C1.13432 5.2091 0.5 5.84324 0.5 6.62576C0.5 7.40811 1.13432 8.04243 1.91667 8.04243C2.69902 8.04243 3.33333 7.40811 3.33333 6.62576C3.33212 6.45525 3.29996 6.28664 3.23839 6.12772L5.97004 4.08901C6.5044 4.38697 7.17089 4.29964 7.61031 3.87388L9.98139 5.04827C10.1395 5.75228 10.802 6.22473 11.5191 6.14484C12.2363 6.06494 12.7786 5.45847 12.7777 4.73682C12.7777 4.70085 12.7698 4.66695 12.7672 4.63167L15.3383 3.10312C15.5612 3.24406 15.8194 3.31928 16.0833 3.32015C16.8657 3.32015 17.5 2.68583 17.5 1.90348C17.5 1.12113 16.8657 0.486816 16.0833 0.486816Z" fill="url(#paint4_linear_960_8795)"/>
</g>
<defs>
<linearGradient id="paint0_linear_960_8795" x1="-0.240976" y1="4.76194" x2="6.08057" y2="5.50237" gradientUnits="userSpaceOnUse">
<stop stop-color="#00FEFC"/>
<stop offset="1" stop-color="#0002FE"/>
</linearGradient>
<linearGradient id="paint1_linear_960_8795" x1="4.48131" y1="-3.09204" x2="10.8581" y2="-2.6439" gradientUnits="userSpaceOnUse">
<stop stop-color="#00FEFC"/>
<stop offset="1" stop-color="#0002FE"/>
</linearGradient>
<linearGradient id="paint2_linear_960_8795" x1="9.20336" y1="0.834709" x2="15.5626" y2="1.39333" gradientUnits="userSpaceOnUse">
<stop stop-color="#00FEFC"/>
<stop offset="1" stop-color="#0002FE"/>
</linearGradient>
<linearGradient id="paint3_linear_960_8795" x1="13.9257" y1="-5.05532" x2="20.3079" y2="-4.64757" gradientUnits="userSpaceOnUse">
<stop stop-color="#00FEFC"/>
<stop offset="1" stop-color="#0002FE"/>
</linearGradient>
<linearGradient id="paint4_linear_960_8795" x1="-3.94585" y1="-7.66529" x2="26.1446" y2="8.19447" gradientUnits="userSpaceOnUse">
<stop stop-color="#00FEFC"/>
<stop offset="1" stop-color="#0002FE"/>
</linearGradient>
<clipPath id="clip0_960_8795">
<rect width="17" height="17" fill="white" transform="translate(0.5)"/>
</clipPath>
</defs>
</svg>
