<svg width="231" height="230" viewBox="0 0 231 230" fill="none" xmlns="http://www.w3.org/2000/svg">
<path d="M229.284 115.358C229.284 178.673 177.957 230 114.642 230C51.3269 230 0 178.673 0 115.358C0 52.0432 51.3269 0.716309 114.642 0.716309C177.957 0.716309 229.284 52.0432 229.284 115.358ZM41.271 115.358C41.271 155.88 74.1203 188.729 114.642 188.729C155.163 188.729 188.013 155.88 188.013 115.358C188.013 74.8366 155.163 41.9874 114.642 41.9874C74.1203 41.9874 41.271 74.8366 41.271 115.358Z" fill="#1B1F2E"/>
<path d="M132.399 207.222C134.378 218.445 145.186 226.112 155.874 222.155C177.586 214.118 196.52 199.626 209.984 180.398C227.424 155.491 234.255 124.677 228.975 94.7345C223.695 64.7916 206.737 38.1727 181.831 20.7336C162.603 7.27031 139.854 0.129697 116.703 0.00320685C105.306 -0.0590602 97.772 10.8424 99.751 22.0659C101.73 33.2895 112.559 40.4761 123.891 41.6902C136.107 42.9992 147.914 47.368 158.159 54.5413C174.099 65.7023 184.952 82.7384 188.331 101.902C191.71 121.065 187.338 140.786 176.177 156.726C169.003 166.971 159.403 175.115 148.371 180.524C138.138 185.541 130.42 195.998 132.399 207.222Z" fill="url(#paint0_angular_957_6611)"/>
<path d="M105.352 114.267V118.093H103.11V121.65H98.9557V118.093H89.0621V114.267L96.0265 100.727H100.45L93.5157 114.267H98.9557V109.306H103.11V114.267H105.352ZM113.791 108.349C115.803 108.349 117.497 108.957 118.872 110.172C120.247 111.368 120.934 113.042 120.934 115.194C120.934 117.346 120.207 119.03 118.752 120.245C117.318 121.461 115.554 122.069 113.462 122.069C111.768 122.069 110.274 121.69 108.978 120.933C107.683 120.176 106.746 119.06 106.169 117.585L109.696 115.523C110.214 117.197 111.469 118.033 113.462 118.033C114.518 118.033 115.335 117.784 115.913 117.286C116.511 116.768 116.81 116.071 116.81 115.194C116.81 114.337 116.521 113.65 115.943 113.131C115.365 112.613 114.578 112.354 113.581 112.354H107.245L108.082 100.727H119.948V104.583H111.908L111.639 108.349H113.791ZM130.845 108.768C129.888 109.704 128.692 110.172 127.258 110.172C125.823 110.172 124.617 109.694 123.641 108.738C122.685 107.781 122.206 106.615 122.206 105.24C122.206 103.866 122.685 102.7 123.641 101.743C124.617 100.787 125.823 100.309 127.258 100.309C128.692 100.309 129.888 100.787 130.845 101.743C131.801 102.68 132.279 103.846 132.279 105.24C132.279 106.635 131.801 107.811 130.845 108.768ZM124.329 118.482L137.958 103.328L139.782 104.344L126.122 119.528L124.329 118.482ZM125.883 106.615C126.241 106.974 126.69 107.153 127.228 107.153C127.766 107.153 128.214 106.974 128.573 106.615C128.932 106.237 129.111 105.778 129.111 105.24C129.111 104.702 128.932 104.254 128.573 103.895C128.214 103.537 127.766 103.357 127.228 103.357C126.69 103.357 126.241 103.537 125.883 103.895C125.544 104.254 125.375 104.702 125.375 105.24C125.375 105.778 125.544 106.237 125.883 106.615ZM140.947 120.574C139.991 121.531 138.795 122.009 137.361 122.009C135.926 122.009 134.73 121.531 133.774 120.574C132.817 119.618 132.339 118.452 132.339 117.077C132.339 115.702 132.817 114.536 133.774 113.58C134.73 112.623 135.926 112.145 137.361 112.145C138.795 112.145 139.991 112.623 140.947 113.58C141.904 114.536 142.382 115.702 142.382 117.077C142.382 118.452 141.904 119.618 140.947 120.574ZM136.016 118.452C136.374 118.811 136.823 118.99 137.361 118.99C137.899 118.99 138.337 118.801 138.676 118.422C139.034 118.043 139.214 117.595 139.214 117.077C139.214 116.539 139.034 116.091 138.676 115.732C138.337 115.353 137.899 115.164 137.361 115.164C136.823 115.164 136.374 115.353 136.016 115.732C135.677 116.091 135.507 116.539 135.507 117.077C135.507 117.615 135.677 118.073 136.016 118.452Z" fill="white"/>
<defs>
<radialGradient id="paint0_angular_957_6611" cx="0" cy="0" r="1" gradientUnits="userSpaceOnUse" gradientTransform="translate(116.075 114.644) rotate(90) scale(114.642 114.642)">
<stop offset="0.519418" stop-color="#0F55E8"/>
<stop offset="0.759246" stop-color="#6DCFFA"/>
</radialGradient>
</defs>
</svg>
